<?xml version="1.0" encoding="UTF-8"?>
<svg version="1.1" xmlns="http://www.w3.org/2000/svg" width="1440" height="1080">
<path d="M0 0 C475.2 0 950.4 0 1440 0 C1440 356.4 1440 712.8 1440 1080 C964.8 1080 489.6 1080 0 1080 C0 723.6 0 367.2 0 0 Z " fill="#000000" transform="translate(0,0)"/>
<path d="M0 0 C77.22 0 154.44 0 234 0 C234 149.82 234 299.64 234 454 C-241.2 454 -716.4 454 -1206 454 C-1206 425.62 -1206 397.24 -1206 368 C-1128.78 368 -1051.56 368 -972 368 C-972 337.64 -972 307.28 -972 276 C-865.08 276 -758.16 276 -648 276 C-648 245.64 -648 215.28 -648 184 C-541.08 184 -434.16 184 -324 184 C-324 153.64 -324 123.28 -324 92 C-217.08 92 -110.16 92 0 92 C0 61.64 0 31.28 0 0 Z " fill="#FEFEFE" transform="translate(1206,626)"/>
<path d="M0 0 C475.2 0 950.4 0 1440 0 C1440 28.38 1440 56.76 1440 86 C1362.78 86 1285.56 86 1206 86 C1206 116.36 1206 146.72 1206 178 C1099.08 178 992.16 178 882 178 C882 208.36 882 238.72 882 270 C775.08 270 668.16 270 558 270 C558 300.36 558 330.72 558 362 C451.08 362 344.16 362 234 362 C234 392.36 234 422.72 234 454 C156.78 454 79.56 454 0 454 C0 304.18 0 154.36 0 0 Z " fill="#FFFFFF" transform="translate(0,0)"/>
<path d="M0 0 C1.02524599 0.97409993 2.03305631 1.96800199 3 3 C3.33 1.02 3.66 -0.96 4 -3 C9.94 -3 15.88 -3 22 -3 C22 16.14 22 35.28 22 55 C16.06 55 10.12 55 4 55 C3.505 52.03 3.505 52.03 3 49 C2.113125 49.78375 1.22625 50.5675 0.3125 51.375 C-4.63302548 55.74546438 -9.66235482 56.51815608 -16.08984375 56.37109375 C-23.91133197 55.37372277 -29.47544068 51.17694919 -34.52734375 45.35546875 C-40.15277816 36.357758 -40.16255618 26.29197352 -39 16 C-36.9789634 8.06230555 -31.62041608 2.58954321 -25 -2 C-16.60466698 -5.66341804 -7.56237755 -5.22205748 0 0 Z " fill="#FBFBFB" transform="translate(757,521)"/>
<path d="M0 0 C2.57191889 1.42218396 4.48892839 3.04767075 6.5 5.1875 C6.83 3.2075 7.16 1.2275 7.5 -0.8125 C13.44 -0.8125 19.38 -0.8125 25.5 -0.8125 C25.5 18.3275 25.5 37.4675 25.5 57.1875 C19.56 57.1875 13.62 57.1875 7.5 57.1875 C7.005 54.2175 7.005 54.2175 6.5 51.1875 C5.613125 51.97125 4.72625 52.755 3.8125 53.5625 C-1.13287841 57.93283441 -6.15954138 58.70107458 -12.5859375 58.5625 C-19.04369711 57.73147464 -24.45843767 54.68613469 -28.875 49.9375 C-29.78841441 48.71528925 -30.66450392 47.46424245 -31.5 46.1875 C-31.9125 45.58808594 -32.325 44.98867188 -32.75 44.37109375 C-36.93693878 36.94218502 -36.71096018 27.42984189 -35.5 19.1875 C-32.63314583 9.7967798 -27.57466552 4.11519165 -19.25 -0.6875 C-12.68557942 -2.65682618 -6.29045173 -3.01200267 0 0 Z " fill="#FBFBFB" transform="translate(640.5,518.8125)"/>
<path d="M0 0 C6.6 0 13.2 0 20 0 C24.82438477 11.15638979 28.90335399 22.56053972 33 34 C33.32274902 33.14768799 33.64549805 32.29537598 33.97802734 31.41723633 C35.18159772 28.2395249 36.38558241 25.06197109 37.58984375 21.88452148 C38.10986544 20.51218813 38.6297244 19.1397931 39.14941406 17.76733398 C39.89865497 15.78873516 40.6484908 13.81036265 41.3984375 11.83203125 C41.84880371 10.64327393 42.29916992 9.4545166 42.76318359 8.22973633 C43.81737775 5.47688704 44.90521585 2.73696039 46 0 C52.27 0 58.54 0 65 0 C64.27823552 3.60882241 63.6596843 6.12581129 62.25683594 9.39013672 C61.71862465 10.65248642 61.71862465 10.65248642 61.16954041 11.94033813 C60.77843582 12.84432343 60.38733124 13.74830872 59.984375 14.6796875 C59.57655289 15.63306 59.16873077 16.5864325 58.74855042 17.56869507 C57.87348204 19.61297384 56.99626007 21.65633184 56.11709595 23.69885254 C54.28673143 27.95130287 52.46659296 32.20810211 50.64595032 36.46472168 C49.73330861 38.59817036 48.82013078 40.73138977 47.90641785 42.86437988 C44.0037686 51.97708331 40.14395866 61.10716978 36.3125 70.25 C36.04119263 70.89580017 35.76988525 71.54160034 35.49035645 72.20697021 C32.56933481 79.03646675 32.56933481 79.03646675 30 86 C23.4 86 16.8 86 10 86 C11.34005322 81.97984034 12.58538594 78.58364804 14.41796875 74.84765625 C14.86720703 73.90599609 15.31644531 72.96433594 15.77929688 71.99414062 C16.71878634 70.03828252 17.66935391 68.08770758 18.63085938 66.14257812 C19.07623047 65.19962891 19.52160156 64.25667969 19.98046875 63.28515625 C20.39192139 62.43832275 20.80337402 61.59148926 21.22729492 60.71899414 C23.28386799 53.48232613 19.42023005 46.69717408 16.5625 40.17578125 C16.12236572 39.15195847 15.68223145 38.12813568 15.22875977 37.07328796 C13.82710033 33.81620328 12.41416761 30.56417096 11 27.3125 C9.58773397 24.04933869 8.17788681 20.78516465 6.77124023 17.51957703 C5.8968453 15.49129649 5.01887678 13.46455197 4.13696289 11.43952942 C3.73985107 10.52145004 3.34273926 9.60337067 2.93359375 8.6574707 C2.58353271 7.85251663 2.23347168 7.04756256 1.87280273 6.21821594 C1 4 1 4 0 0 Z " fill="#FAFAFA" transform="translate(816,518)"/>
<path d="M0 0 C5.08283554 3.35658951 8.06260554 7.26759169 10 13 C10 14.32 10 15.64 10 17 C7.22754986 17.13487595 4.46162912 17.23400807 1.6875 17.3125 C0.90181641 17.35439453 0.11613281 17.39628906 -0.69335938 17.43945312 C-2.90128038 17.48643017 -4.84409034 17.48702343 -7 17 C-8.71875 14.5 -8.71875 14.5 -10 12 C-12.50361789 11.3970916 -12.50361789 11.3970916 -15.1875 11.6875 C-16.08855469 11.73261719 -16.98960937 11.77773438 -17.91796875 11.82421875 C-18.60503906 11.88222656 -19.29210937 11.94023438 -20 12 C-20.25030977 14.41619823 -20.25030977 14.41619823 -20 17 C-17.09172713 18.93884858 -15.26982013 19.55990011 -11.9375 20.375 C4.34127038 24.72461854 4.34127038 24.72461854 9 30.87890625 C11.31174604 35.78233633 10.74266996 40.90554183 9.5078125 46.05078125 C7.24104033 51.32044232 2.36886024 53.6136235 -2.640625 55.8984375 C-11.11258421 58.67645203 -19.98486019 57.79664517 -28 54 C-33.98146086 50.61426744 -37.90702424 46.62775656 -40 40 C-40 39.01 -40 38.02 -40 37 C-34.06 37 -28.12 37 -22 37 C-21.34 38.32 -20.68 39.64 -20 41 C-17.35541621 42.32229189 -15.32238699 42.09677194 -12.375 42.0625 C-11.37210938 42.05347656 -10.36921875 42.04445313 -9.3359375 42.03515625 C-8.56507813 42.02355469 -7.79421875 42.01195312 -7 42 C-7.31963489 39.02884844 -7.31963489 39.02884844 -9 36 C-12.6408932 34.00075954 -16.7712432 33.27840364 -20.79296875 32.3671875 C-27.79899714 30.68574069 -33.2550301 28.46404196 -37.16015625 22.11328125 C-38.72777353 18.1687187 -38.53351828 14.16275987 -38 10 C-35.04286182 4.08572363 -30.38434036 -0.00775121 -24.2109375 -2.4609375 C-16.22633718 -4.40771284 -7.35540864 -3.69259381 0 0 Z " fill="#F8F8F8" transform="translate(925,520)"/>
<path d="M0 0 C7.45511658 4.06269656 11.82577074 9.16658399 14.5703125 17.15625 C15.12890625 19.16015625 15.12890625 19.16015625 15.12890625 20.16015625 C12.06492174 20.29546469 9.00693499 20.39439695 5.94140625 20.47265625 C5.07708984 20.51455078 4.21277344 20.55644531 3.32226562 20.59960938 C-3.20310416 20.72461646 -3.20310416 20.72461646 -6.76953125 17.7109375 C-7.46304688 16.86917969 -8.1565625 16.02742187 -8.87109375 15.16015625 C-12.27079186 13.82922465 -12.27079186 13.82922465 -15.87109375 14.16015625 C-19.39970318 16.10207553 -21.57720331 18.27848494 -22.87109375 22.16015625 C-23.70484944 30.36208997 -23.70484944 30.36208997 -20.93359375 37.84765625 C-18.85772113 40.53261984 -18.85772113 40.53261984 -15.98046875 41.43359375 C-15.201875 41.46710937 -14.42328125 41.500625 -13.62109375 41.53515625 C-12.8528125 41.58414063 -12.08453125 41.633125 -11.29296875 41.68359375 C-8.60129853 41.35442224 -8.60129853 41.35442224 -6.6875 38.65625 C-2.62189683 35.05303166 0.70692074 35.59393398 5.94140625 35.84765625 C6.82505859 35.87021484 7.70871094 35.89277344 8.61914062 35.91601562 C10.78979535 35.97468197 12.95957315 36.06435646 15.12890625 36.16015625 C12.63474733 44.36610427 10.07628551 50.17579277 2.4609375 54.76953125 C-5.59424736 58.55770273 -13.7123675 59.77090004 -22.41015625 57.49609375 C-29.74174987 54.59872857 -35.96906613 49.75478251 -39.30859375 42.53515625 C-42.8256808 33.79763954 -43.47038061 23.18442984 -40.0390625 14.32421875 C-32.19088425 -0.21722189 -15.45942314 -6.12113439 0 0 Z " fill="#FAFAFA" transform="translate(583.87109375,518.83984375)"/>
<path d="M0 0 C5.94 0 11.88 0 18 0 C18 4.62 18 9.24 18 14 C21.63 14 25.26 14 29 14 C29 18.95 29 23.9 29 29 C25.37 29 21.74 29 18 29 C18.13811922 33.31278385 18.28678109 37.62513953 18.4375 41.9375 C18.47681641 43.16919922 18.51613281 44.40089844 18.55664062 45.66992188 C18.59853516 46.83974609 18.64042969 48.00957031 18.68359375 49.21484375 C18.72025146 50.29886475 18.75690918 51.38288574 18.79467773 52.49975586 C18.72364265 54.939263 18.72364265 54.939263 20 56 C21.68183948 56.23287008 23.3712416 56.41264166 25.0625 56.5625 C26.691875 56.706875 28.32125 56.85125 30 57 C30 61.95 30 66.9 30 72 C27.29105233 72.08144943 24.58458737 72.14070614 21.875 72.1875 C21.11445312 72.21263672 20.35390625 72.23777344 19.5703125 72.26367188 C13.21025712 72.34591397 9.24506435 70.83687083 4.25 66.75 C-1.44614279 59.7880477 -0.23708137 51.1022379 -0.125 42.5625 C-0.11597656 41.25861328 -0.10695313 39.95472656 -0.09765625 38.61132812 C-0.07418397 35.40736168 -0.04134727 32.20377736 0 29 C-2.31 29 -4.62 29 -7 29 C-7 24.05 -7 19.1 -7 14 C-4.69 14 -2.38 14 0 14 C0 9.38 0 4.76 0 0 Z " fill="#FBFBFB" transform="translate(949,504)"/>
<path d="M0 0 C5.61 0 11.22 0 17 0 C17 4.62 17 9.24 17 14 C20.96 14 24.92 14 29 14 C29 18.95 29 23.9 29 29 C25.37 29 21.74 29 18 29 C18.13811922 33.31278385 18.28678109 37.62513953 18.4375 41.9375 C18.47681641 43.16919922 18.51613281 44.40089844 18.55664062 45.66992188 C18.59853516 46.83974609 18.64042969 48.00957031 18.68359375 49.21484375 C18.72025146 50.29886475 18.75690918 51.38288574 18.79467773 52.49975586 C18.72364265 54.939263 18.72364265 54.939263 20 56 C22.98889359 56.45765667 25.98969648 56.70320951 29 57 C29 61.95 29 66.9 29 72 C10.56935555 72.80522233 10.56935555 72.80522233 5 68 C0.75846523 62.67089221 -0.12591536 58.84194079 -0.09765625 52.14453125 C-0.0962413 51.48289474 -0.09482635 50.82125824 -0.09336853 50.13957214 C-0.08777996 48.03050172 -0.07522965 45.92153823 -0.0625 43.8125 C-0.05748352 42.38086091 -0.05292087 40.94922015 -0.04882812 39.51757812 C-0.0378143 36.01168412 -0.02055755 32.5058525 0 29 C-2.31 29 -4.62 29 -7 29 C-7 24.05 -7 19.1 -7 14 C-4.69 14 -2.38 14 0 14 C0 9.38 0 4.76 0 0 Z " fill="#FBFBFB" transform="translate(682,504)"/>
<path d="M0 0 C5.94 0 11.88 0 18 0 C18 25.41 18 50.82 18 77 C12.06 77 6.12 77 0 77 C0 51.59 0 26.18 0 0 Z " fill="#FBFBFB" transform="translate(792,499)"/>
<path d="M0 0 C21.12 0 42.24 0 64 0 C64 5.61 64 11.22 64 17 C42.88 17 21.76 17 0 17 C0 11.39 0 5.78 0 0 Z " fill="#FBFBFB" transform="translate(467,580)"/>
<path d="M0 0 C3.15835169 2.43456276 4.79981495 4.69972243 7 8 C7.74413323 14.15601123 7.64778819 19.78887402 4 25 C0.23528735 28.38987113 -2.60083705 28.57043868 -7.5234375 28.41796875 C-11.64831619 27.72181415 -13.23092204 26.11521271 -16 23 C-18.5950686 18.7535241 -18.70038082 13.84287715 -18 9 C-13.85156292 0.99944277 -8.79812465 -1.55428782 0 0 Z " fill="#040404" transform="translate(641,533)"/>
<path d="M0 0 C3.71194997 1.64975554 5.85325399 3.56520639 8 7 C9.69938759 12.09816276 9.63928388 16.38656926 7.6875 21.3125 C5.38374755 24.98143909 4.13771537 26.62076154 0 28 C-4.63382831 28.45578639 -7.62698313 28.75013484 -11.375 25.8125 C-15.94759156 20.91329475 -16.4053052 16.9036186 -16.25 10.37109375 C-15.79133954 6.02098591 -14.09817388 3.9099155 -10.8125 1.1875 C-7.08880979 -0.38472476 -3.98583696 -0.59827979 0 0 Z " fill="#020202" transform="translate(752,533)"/>
</svg>
